<svg width="266" height="74" viewBox="0 0 266 74" fill="none" xmlns="http://www.w3.org/2000/svg">
<path d="M32.2434 39.1512L7.04522 16.3994L7.192 37.6833H-0.000488281V0.253029H0.293082L25.4423 23.3473L25.2956 1.67196H32.4391V39.1512H32.2434Z" fill="#ED903D"/>
<path d="M41.713 1.67196H66.2751V8.52195H48.8076V16.2037H64.269V23.0537H48.8076V30.8333H66.9601V37.6833H41.713V1.67196Z" fill="#ED903D"/>
<path d="M71.2176 1.9166H79.5355L86.6301 22.7601L92.1101 9.01123L89.2722 1.9166H96.3179L104.391 21.9284L110.507 1.9166H118.14L104.244 39.2491L95.6819 17.9162L85.7005 39.3469L71.2176 1.9166Z" fill="#ED903D"/>
<path d="M143.604 10.3812C142.234 9.63099 140.832 9.01123 139.396 8.52195C137.994 8.03266 136.673 7.78802 135.433 7.78802C133.9 7.78802 132.693 8.0979 131.813 8.71766C130.932 9.33742 130.491 10.2671 130.491 11.5066C130.491 12.3547 130.818 13.1212 131.47 13.8062C132.155 14.4586 133.019 15.0457 134.063 15.5677C135.14 16.0896 136.249 16.5625 137.39 16.9866C138.793 17.5085 140.147 18.1772 141.451 18.9926C142.756 19.7755 143.833 20.8682 144.681 22.2709C145.529 23.6409 145.953 25.4675 145.953 27.7509C145.953 29.5775 145.48 31.2737 144.534 32.8394C143.588 34.4051 142.202 35.6773 140.375 36.6558C138.548 37.6018 136.298 38.0748 133.623 38.0748C131.568 38.0748 129.464 37.7649 127.311 37.1451C125.191 36.5254 123.185 35.5468 121.293 34.2094L124.424 28.6805C125.664 29.5938 127.083 30.3441 128.681 30.9312C130.279 31.5183 131.715 31.8119 132.987 31.8119C133.835 31.8119 134.683 31.6978 135.531 31.4694C136.412 31.2085 137.129 30.7844 137.684 30.1973C138.271 29.6101 138.565 28.7947 138.565 27.7509C138.565 26.6744 138.043 25.7448 136.999 24.9619C135.988 24.1465 134.765 23.4615 133.329 22.9069C132.22 22.4829 131.079 21.9936 129.904 21.4391C128.73 20.8846 127.621 20.2159 126.577 19.433C125.566 18.6175 124.734 17.6227 124.082 16.4484C123.462 15.2415 123.152 13.7736 123.152 12.0448C123.152 9.95718 123.609 8.14683 124.522 6.61374C125.468 5.08064 126.789 3.87374 128.485 2.99303C130.182 2.07969 132.139 1.5741 134.357 1.47624C137.26 1.47624 139.608 1.81874 141.402 2.50374C143.229 3.18874 144.86 4.00422 146.295 4.95017L143.604 10.3812Z" fill="#ED903D"/>
<path d="M152.901 37.6833V0.204102H152.95L171.2 26.0873L189.891 0.204102H189.989V37.6833H182.894V20.5094L171.151 37.1941H171.054L159.751 21.5859V37.6833H152.901Z" fill="#ED903D"/>
<path d="M195.236 37.6833L211.48 0.253029H211.872L228.116 37.6833H219.896L217.107 30.6376H205.169L202.233 37.6833H195.236ZM207.664 24.6684H214.759L211.285 15.9102L207.664 24.6684Z" fill="#ED903D"/>
<path d="M265.609 39.1512L240.411 16.3994L240.558 37.6833H233.366V0.253029H233.659L258.808 23.3473L258.662 1.67196H265.805V39.1512H265.609Z" fill="#ED903D"/>
<path d="M70.5708 55.0561H82.8519V58.4811H74.1181V62.322H81.8488V65.747H74.1181V69.6368H83.1944V73.0618H70.5708V55.0561Z" fill="#ED903D"/>
<path d="M102.986 73.7958L90.3872 62.4199L90.4606 73.0618H86.8644V54.3467H87.0112L99.5858 65.8938L99.5124 55.0561H103.084V73.7958H102.986Z" fill="#ED903D"/>
<path d="M122.326 71.2515C122.114 71.4798 121.78 71.7163 121.323 71.9609C120.867 72.1893 120.337 72.4013 119.733 72.597C119.146 72.7927 118.542 72.9477 117.923 73.0618C117.303 73.1923 116.716 73.2576 116.161 73.2576C114.22 73.2576 112.532 72.8824 111.097 72.1322C109.662 71.382 108.553 70.3545 107.77 69.0497C107.003 67.7449 106.62 66.2526 106.62 64.5727C106.62 62.9255 106.865 61.4984 107.354 60.2915C107.86 59.0683 108.537 58.0571 109.385 57.2579C110.249 56.4425 111.236 55.839 112.345 55.4476C113.47 55.0561 114.644 54.8604 115.868 54.8604C117.026 54.8604 118.086 54.9909 119.048 55.2519C120.01 55.4965 120.826 55.8064 121.494 56.1815L120.345 59.4842C120.051 59.3211 119.66 59.158 119.17 58.9949C118.681 58.8318 118.184 58.7013 117.678 58.6035C117.172 58.4893 116.724 58.4322 116.333 58.4322C114.392 58.4322 112.899 58.9215 111.856 59.9001C110.812 60.8623 110.29 62.3139 110.29 64.2547C110.29 65.3801 110.543 66.3505 111.048 67.1659C111.554 67.9814 112.255 68.6093 113.152 69.0497C114.066 69.4901 115.101 69.7102 116.259 69.7102C116.765 69.7102 117.23 69.6776 117.654 69.6124C118.078 69.5308 118.436 69.4085 118.73 69.2454V67.0681H115.623V63.6431H122.326V71.2515Z" fill="#ED903D"/>
<path d="M126.356 55.0561H129.903V69.6368H138.368V73.0618H126.356V55.0561Z" fill="#ED903D"/>
<path d="M139.998 73.0618L148.12 54.3467H148.316L156.438 73.0618H152.328L150.933 69.539H144.964L143.496 73.0618H139.998ZM146.212 66.5543H149.759L148.022 62.1752L146.212 66.5543Z" fill="#ED903D"/>
<path d="M175.185 73.7958L162.585 62.4199L162.659 73.0618H159.063V54.3467H159.209L171.784 65.8938L171.711 55.0561H175.282V73.7958H175.185Z" fill="#ED903D"/>
<path d="M179.919 73.0618V55.0561H185.301C187.112 55.0561 188.653 55.3252 189.925 55.8635C191.197 56.4017 192.217 57.1193 192.983 58.0163C193.766 58.9133 194.337 59.9164 194.696 61.0254C195.055 62.1345 195.234 63.2517 195.234 64.377C195.234 65.7144 194.989 66.9213 194.5 67.9977C194.027 69.0579 193.375 69.9712 192.543 70.7377C191.711 71.488 190.749 72.067 189.656 72.4747C188.563 72.8661 187.405 73.0618 186.182 73.0618H179.919ZM183.467 69.6368H185.571C187.365 69.6368 188.808 69.172 189.901 68.2424C191.01 67.3127 191.564 65.9427 191.564 64.1324C191.564 62.9581 191.369 62.004 190.977 61.2701C190.602 60.5198 190.129 59.9408 189.558 59.5331C189.004 59.1254 188.433 58.8481 187.846 58.7013C187.259 58.5382 186.761 58.4567 186.353 58.4567H183.467V69.6368Z" fill="#ED903D"/>
</svg>
