<svg width="392" height="102" viewBox="0 0 392 102" fill="none" xmlns="http://www.w3.org/2000/svg">
<path d="M47.4634 57.6216L10.3714 24.1307L10.5874 55.4609H0V0.363038H0.432139L37.4521 34.358L37.2361 2.45171H47.7515V57.6216H47.4634Z" fill="white"/>
<path d="M61.4027 2.45171H97.5584V12.535H71.8461V23.8426H94.6054V33.9259H71.8461V45.3776H98.5667V55.4609H61.4027V2.45171Z" fill="white"/>
<path d="M104.834 2.81183H117.078L127.521 33.4938L135.588 13.2552L131.41 2.81183H141.782L153.666 32.2694L162.669 2.81183H173.904L153.45 57.7656L140.846 26.3635L126.153 57.9097L104.834 2.81183Z" fill="white"/>
<path d="M211.388 15.2719C209.371 14.1675 207.307 13.2552 205.194 12.535C203.129 11.8147 201.185 11.4546 199.36 11.4546C197.103 11.4546 195.327 11.9108 194.03 12.8231C192.734 13.7354 192.086 15.1038 192.086 16.9284C192.086 18.1768 192.566 19.3052 193.526 20.3135C194.534 21.2738 195.807 22.1381 197.343 22.9063C198.928 23.6746 200.56 24.3708 202.241 24.995C204.306 25.7633 206.298 26.7476 208.219 27.948C210.139 29.1003 211.724 30.7089 212.972 32.7735C214.221 34.7902 214.845 37.4791 214.845 40.8401C214.845 43.529 214.149 46.0258 212.756 48.3306C211.364 50.6353 209.323 52.5079 206.634 53.9484C203.945 55.3408 200.632 56.0371 196.695 56.0371C193.67 56.0371 190.573 55.5809 187.404 54.6686C184.283 53.7563 181.33 52.3159 178.545 50.3472L183.155 42.2086C184.979 43.553 187.068 44.6574 189.421 45.5217C191.774 46.3859 193.886 46.8181 195.759 46.8181C197.007 46.8181 198.256 46.65 199.504 46.3139C200.8 45.9298 201.857 45.3056 202.673 44.4413C203.537 43.577 203.969 42.3766 203.969 40.8401C203.969 39.2556 203.201 37.8872 201.665 36.7348C200.176 35.5344 198.376 34.5261 196.263 33.7098C194.63 33.0856 192.95 32.3654 191.221 31.5491C189.493 30.7329 187.86 29.7486 186.324 28.5962C184.835 27.3958 183.611 25.9313 182.651 24.2028C181.738 22.4262 181.282 20.2655 181.282 17.7207C181.282 14.6477 181.954 11.9828 183.299 9.72607C184.691 7.46934 186.636 5.69276 189.133 4.39634C191.629 3.05191 194.51 2.30767 197.775 2.16362C202.049 2.16362 205.506 2.66779 208.147 3.67611C210.836 4.68444 213.236 5.88483 215.349 7.27728L211.388 15.2719Z" fill="white"/>
<path d="M225.073 55.4609V0.291016H225.145L252.01 38.3913L279.522 0.291016H279.667V55.4609H269.223V30.1807L251.938 54.7406H251.794L235.156 31.7652V55.4609H225.073Z" fill="white"/>
<path d="M287.39 55.4609L311.302 0.363038H311.878L335.79 55.4609H323.69L319.585 45.0895H302.011L297.69 55.4609H287.39ZM305.684 36.3027H316.128L311.014 23.4105L305.684 36.3027Z" fill="white"/>
<path d="M390.981 57.6216L353.889 24.1307L354.105 55.4609H343.517V0.363038H343.95L380.97 34.358L380.754 2.45171H391.269V57.6216H390.981Z" fill="white"/>
<path d="M103.882 74.3312H121.96V79.3728H109.103V85.0267H120.483V90.0683H109.103V95.7942H122.464V100.836H103.882V74.3312Z" fill="white"/>
<path d="M151.598 101.916L133.052 85.1707L133.16 100.836H127.866V73.2869H128.082L146.592 90.2844L146.484 74.3312H151.742V101.916H151.598Z" fill="white"/>
<path d="M180.066 98.1709C179.754 98.507 179.262 98.8551 178.59 99.2153C177.918 99.5514 177.137 99.8635 176.249 100.152C175.385 100.44 174.497 100.668 173.584 100.836C172.672 101.028 171.808 101.124 170.991 101.124C168.135 101.124 165.65 100.572 163.537 99.4673C161.424 98.363 159.792 96.8505 158.639 94.9299C157.511 93.0093 156.947 90.8125 156.947 88.3397C156.947 85.915 157.307 83.8143 158.027 82.0377C158.771 80.2371 159.768 78.7486 161.016 77.5723C162.289 76.3719 163.741 75.4836 165.374 74.9074C167.03 74.3312 168.759 74.0431 170.559 74.0431C172.264 74.0431 173.824 74.2352 175.241 74.6193C176.657 74.9794 177.858 75.4356 178.842 75.9877L177.149 80.8493C176.717 80.6092 176.141 80.3692 175.421 80.1291C174.701 79.889 173.968 79.6969 173.224 79.5529C172.48 79.3848 171.82 79.3008 171.244 79.3008C168.387 79.3008 166.19 80.021 164.653 81.4615C163.117 82.878 162.349 85.0147 162.349 87.8716C162.349 89.5281 162.721 90.9566 163.465 92.157C164.209 93.3574 165.242 94.2817 166.562 94.9299C167.906 95.5781 169.431 95.9022 171.135 95.9022C171.88 95.9022 172.564 95.8542 173.188 95.7581C173.812 95.6381 174.341 95.458 174.773 95.218V92.0129H170.199V86.9713H180.066V98.1709Z" fill="white"/>
<path d="M185.998 74.3312H191.22V95.7942H203.68V100.836H185.998V74.3312Z" fill="white"/>
<path d="M206.079 100.836L218.035 73.2869H218.323L230.279 100.836H224.229L222.176 95.6501H213.39L211.229 100.836H206.079ZM215.226 91.2567H220.448L217.891 84.8106L215.226 91.2567Z" fill="white"/>
<path d="M257.874 101.916L239.328 85.1707L239.436 100.836H234.143V73.2869H234.359L252.869 90.2844L252.761 74.3312H258.018V101.916H257.874Z" fill="white"/>
<path d="M264.844 100.836V74.3312H272.767C275.431 74.3312 277.7 74.7273 279.573 75.5196C281.445 76.3118 282.946 77.3682 284.074 78.6886C285.227 80.009 286.067 81.4855 286.595 83.118C287.123 84.7506 287.387 86.3951 287.387 88.0516C287.387 90.0203 287.027 91.7969 286.307 93.3814C285.611 94.9419 284.65 96.2863 283.426 97.4147C282.202 98.519 280.785 99.3713 279.177 99.9715C277.568 100.548 275.864 100.836 274.063 100.836H264.844ZM270.066 95.7942H273.163C275.804 95.7942 277.928 95.1099 279.537 93.7415C281.169 92.373 281.986 90.3564 281.986 87.6915C281.986 85.963 281.697 84.5585 281.121 83.4782C280.569 82.3738 279.873 81.5215 279.033 80.9213C278.216 80.3211 277.376 79.913 276.512 79.6969C275.647 79.4569 274.915 79.3368 274.315 79.3368H270.066V95.7942Z" fill="white"/>
</svg>
