<svg width="266" height="74" viewBox="0 0 266 74" fill="none" xmlns="http://www.w3.org/2000/svg">
<path fill-rule="evenodd" clip-rule="evenodd" d="M152.902 0V37.4792H159.752V21.3818L171.054 36.99H171.152L182.895 20.3053V37.4792H189.989V0H189.892L171.201 25.8832L152.951 0H152.902ZM32.2439 38.9471L7.0457 16.1953L7.19249 37.4792H0V0.0489279H0.293571L25.4428 23.1432L25.296 1.46785H32.4396V38.9471H32.2439ZM41.7135 1.46785H66.2756V8.31785H48.8081V15.9996H64.2695V22.8496H48.8081V30.6292H66.9606V37.4792H41.7135V1.46785ZM79.536 1.7125H71.2181L85.701 39.1428L95.6824 17.7121L104.245 39.0449L118.141 1.7125H110.508L104.392 21.7243L96.3184 1.7125H89.2727L92.1106 8.80713L86.6306 22.556L79.536 1.7125ZM143.605 10.1771C142.235 9.42689 140.832 8.80713 139.397 8.31785C137.994 7.82856 136.673 7.58392 135.434 7.58392C133.901 7.58392 132.694 7.8938 131.813 8.51356C130.932 9.13332 130.492 10.063 130.492 11.3025C130.492 12.1506 130.818 12.9171 131.471 13.6021C132.156 14.2545 133.02 14.8416 134.064 15.3636C135.14 15.8855 136.249 16.3584 137.391 16.7825C138.793 17.3044 140.147 17.9731 141.452 18.7885C142.757 19.5714 143.833 20.6641 144.681 22.0668C145.529 23.4368 145.953 25.2634 145.953 27.5467C145.953 29.3734 145.48 31.0696 144.534 32.6353C143.588 34.201 142.202 35.4732 140.376 36.4517C138.549 37.3977 136.298 37.8707 133.623 37.8707C131.568 37.8707 129.464 37.5608 127.312 36.941C125.191 36.3213 123.185 35.3427 121.293 34.0053L124.425 28.4764C125.664 29.3897 127.083 30.14 128.682 30.7271C130.28 31.3142 131.715 31.6078 132.987 31.6078C133.835 31.6078 134.683 31.4936 135.532 31.2653C136.412 31.0044 137.13 30.5803 137.684 29.9932C138.272 29.406 138.565 28.5906 138.565 27.5467C138.565 26.4703 138.043 25.5407 136.999 24.7578C135.988 23.9423 134.765 23.2573 133.33 22.7028C132.221 22.2788 131.079 21.7895 129.905 21.235C128.731 20.6804 127.621 20.0118 126.578 19.2289C125.566 18.4134 124.735 17.4185 124.082 16.2443C123.463 15.0374 123.153 13.5695 123.153 11.8407C123.153 9.75308 123.609 7.94273 124.523 6.40963C125.469 4.87654 126.79 3.66964 128.486 2.78892C130.182 1.87559 132.139 1.37 134.357 1.27214C137.26 1.27214 139.609 1.61464 141.403 2.29964C143.23 2.98464 144.861 3.80011 146.296 4.74607L143.605 10.1771ZM195.237 37.4792L211.481 0.0489279H211.872L228.117 37.4792H219.897L217.108 30.4335H205.169L202.233 37.4792H195.237ZM207.664 24.4643H214.759L211.285 15.7061L207.664 24.4643ZM240.412 16.1953L265.61 38.9471H265.806V1.46785H258.662L258.809 23.1432L233.66 0.0489279H233.366V37.4792H240.559L240.412 16.1953ZM102.987 73.5917L90.3877 62.2158L90.4611 72.8577H86.8649V54.1426H87.0117L99.5863 65.6897L99.5129 54.852H103.085V73.5917H102.987ZM70.5713 54.852H82.8523V58.277H74.1186V62.1179H81.8493V65.5429H74.1186V69.4327H83.1948V72.8577H70.5713V54.852ZM121.324 71.7568C121.78 71.5122 122.115 71.2757 122.327 71.0474V63.439H115.624V66.864H118.731V69.0413C118.437 69.2044 118.078 69.3267 117.654 69.4083C117.23 69.4735 116.765 69.5061 116.26 69.5061C115.102 69.5061 114.066 69.2859 113.153 68.8456C112.256 68.4052 111.554 67.7773 111.049 66.9618C110.543 66.1464 110.29 65.176 110.29 64.0506C110.29 62.1098 110.812 60.6582 111.856 59.696C112.9 58.7174 114.392 58.2281 116.333 58.2281C116.724 58.2281 117.173 58.2852 117.679 58.3994C118.184 58.4972 118.682 58.6277 119.171 58.7908C119.66 58.9539 120.052 59.117 120.345 59.2801L121.495 55.9774C120.826 55.6023 120.011 55.2924 119.049 55.0478C118.086 54.7868 117.026 54.6563 115.868 54.6563C114.645 54.6563 113.471 54.852 112.345 55.2435C111.236 55.6349 110.25 56.2383 109.385 57.0538C108.537 57.853 107.86 58.8642 107.355 60.0874C106.865 61.2943 106.621 62.7214 106.621 64.3686C106.621 66.0485 107.004 67.5408 107.771 68.8456C108.553 70.1504 109.662 71.1779 111.098 71.9281C112.533 72.6783 114.221 73.0535 116.162 73.0535C116.716 73.0535 117.303 72.9882 117.923 72.8577C118.543 72.7436 119.146 72.5886 119.734 72.3929C120.337 72.1972 120.867 71.9852 121.324 71.7568ZM126.356 54.852H129.904V69.4327H138.368V72.8577H126.356V54.852ZM148.12 54.1426L139.998 72.8577H143.497L144.965 69.3349H150.934L152.328 72.8577H156.438L148.316 54.1426H148.12ZM149.76 66.3502H146.212L148.023 61.9711L149.76 66.3502ZM175.185 73.5917L162.586 62.2158L162.659 72.8577H159.063V54.1426H159.21L171.784 65.6897L171.711 54.852H175.283V73.5917H175.185ZM179.92 54.852V72.8577H186.183C187.406 72.8577 188.564 72.662 189.657 72.2706C190.749 71.8629 191.712 71.2839 192.543 70.5336C193.375 69.7671 194.028 68.8538 194.501 67.7936C194.99 66.7172 195.234 65.5103 195.234 64.1729C195.234 63.0476 195.055 61.9304 194.696 60.8213C194.337 59.7123 193.767 58.7092 192.984 57.8122C192.217 56.9152 191.198 56.1976 189.926 55.6594C188.654 55.1211 187.112 54.852 185.302 54.852H179.92ZM185.571 69.4327H183.467V58.2526H186.354C186.762 58.2526 187.259 58.3341 187.846 58.4972C188.433 58.644 189.004 58.9213 189.559 59.329C190.13 59.7367 190.603 60.3157 190.978 61.066C191.369 61.7999 191.565 62.754 191.565 63.9283C191.565 65.7386 191.01 67.1086 189.901 68.0383C188.808 68.9679 187.365 69.4327 185.571 69.4327Z" fill="#ED903D"/>
</svg>
